<svg xmlns="http://www.w3.org/2000/svg" xmlns:xlink="http://www.w3.org/1999/xlink" width="35" height="35" viewBox="0 0 35 35">
    <defs>
        <path id="71pmd29gua" d="M0.649 0L4.188 0 4.188 4.891 0.649 4.891z"/>
        <path id="gjbvji3ehc" d="M0 0.634L3.657 0.634 3.657 5.565 0 5.565z"/>
    </defs>
    <g fill="none" fill-rule="evenodd">
        <g>
            <circle cx="17.5" cy="17.5" r="17.5" fill="#2319DC"/>
            <g>
                <path fill="#FFF" d="M9.352 5.117c.976.25 2.038-.62 2.374-1.94.438-1.72-.921-2.786-1.156-2.845-.976-.246-2.043.621-2.379 1.941-.336 1.325.183 2.594 1.161 2.844" transform="translate(10 9)"/>
                <g transform="translate(10 9) translate(3)">
                    <mask id="vjuu6e6fsb" fill="#fff">
                        <use xlink:href="#71pmd29gua"/>
                    </mask>
                    <path fill="#FFF" d="M4.188 2.445C4.188 1.094 3.395 0 2.418 0S.649 1.094.649 2.445c0 1.352.792 2.446 1.769 2.446.977 0 1.77-1.094 1.77-2.446" mask="url(#vjuu6e6fsb)"/>
                </g>
                <path fill="#FFF" d="M12.856 4.785c-1.028.016-1.84.992-1.817 2.508.02 1.512.871 2.2 1.9 2.187 1.025-.015 1.838-.73 1.818-2.242-.03-1.972-1.655-2.457-1.9-2.453" transform="translate(10 9)"/>
                <g transform="translate(10 9) translate(0 3)">
                    <mask id="xv9ipnadxd" fill="#fff">
                        <use xlink:href="#gjbvji3ehc"/>
                    </mask>
                    <path fill="#FFF" d="M3.649 2.973C3.555 1.613 2.659.566 1.656.637.652.707-.086 1.867.008 3.227.106 4.587.996 5.633 2 5.561c1.008-.069 1.742-1.229 1.649-2.588" mask="url(#xv9ipnadxd)"/>
                </g>
                <path fill="#FFF" d="M11.918 10.469c-.879-.773-1.625-1.402-2.793-3.024-.578-.8-1.242-.906-1.937-.906-.7 0-1.43.246-1.997 1.055-.562.812-1.203 1.602-2.445 2.64C1.504 11.27.977 11.99.977 13.044c0 1.055.601 2.809 2.312 2.809 1.715 0 2.543-.38 3.899-.38 1.355 0 2.257.528 3.968.528 1.715 0 2.43-1.621 2.43-2.676 0-1.054-.297-1.652-1.668-2.855" transform="translate(10 9)"/>
            </g>
        </g>
    </g>
</svg>
