<svg xmlns="http://www.w3.org/2000/svg" xmlns:xlink="http://www.w3.org/1999/xlink" width="35" height="35" viewBox="0 0 35 35">
    <defs>
        <path id="dchqg3dhea" d="M0 11.703L24.499 11.703 24.499 0 0 0z"/>
    </defs>
    <g fill="none" fill-rule="evenodd">
        <g>
            <circle cx="17.5" cy="17.5" r="17.5" fill="#007900"/>
            <g transform="translate(5 12)">
                <path fill="#FFF" d="M14.636 4.508h-.634l-.158-2.553h.95l-.158 2.553zm1.132 2.383l-.843.166V5.712h1.146V4.508h-.462l.158-2.553h.204v-.97h-1.168V.03h-.971v.954h-1.157v.97h.197l.158 2.553h-.614v1.204h1.303v1.517l-1.101.182v1.173l1.087-.196c-.111 1.195-.814 2.813-.822 2.832l1.103.483c.038-.086.909-2.089.937-3.541l.845-.132V6.89z"/>
                <mask id="ufwn9tv09b" fill="#fff">
                    <use xlink:href="#dchqg3dhea"/>
                </mask>
                <path fill="#FFF" d="M.054 1.441L11.526 1.441 11.526.172.054.172zM7.01 10.244H4.453l-.858-2.756h4.22l-.807 2.756zM2.897 6.21h5.8V3.9h-5.8v2.31zm6.54 1.278h1.135V2.655H.963v4.833h1.01l.858 2.756H.001v1.094h11.473v-1.094H8.631l.807-2.756zM22.895 4.508h-.55l-.235-2.476h.953l-.168 2.476zm1.206-2.476h.33V.93h-1.312v-.9h-1.032v.9h-1.311v1.1h.295l.235 2.477h-.591v1.204h1.29v1.462h-1.097v1.205h1.097v3.182h1.204V8.379h1.097V7.174h-1.097V5.712h1.29V4.508h-.564l.166-2.476z" mask="url(#ufwn9tv09b)"/>
                <path fill="#FFF" d="M20.413 7.351v-6.33l.282-.068L19.9 0l-3.759.854v7.238c0 .896-.66 2.584-.916 3.16l.943.418c.041-.092 1.005-2.28 1.005-3.578v-6.41l.553-.122v8.578l-.764.002v1.211l.01.092 2.455-.271v-1.039l-.669.002V1.33l.623-.138v6.131c-.007.21-.065 2.688.93 4.27.36-.099.722-.19 1.084-.273l-.141-.172c-.92-1.317-.843-3.773-.842-3.797" mask="url(#ufwn9tv09b)"/>
            </g>
        </g>
    </g>
</svg>
