<svg xmlns="http://www.w3.org/2000/svg" width="35" height="35" viewBox="0 0 35 35">
    <g fill="none" fill-rule="evenodd">
        <g>
            <circle cx="17.5" cy="17.5" r="17.5" fill="#FBC700"/>
            <path fill="#FEFEFE" d="M21.196 9.452h-7.702c-.517 0-.937.417-.937.931v7.64c0 .514.42.93.937.93h3.551c-.024.909-.405 1.898-.954 2.775-.618.988-1.936 2.081-1.948 2.09-.104.1-.18.215-.181.375-.002.121.061.215.132.315l2.476 2.776s.12.126.22.15c.112.027.239.03.327-.037 4.288-3.298 4.908-7.433 5.016-9.671v-7.343c0-.514-.419-.93-.937-.93"/>
        </g>
    </g>
</svg>
