<svg xmlns="http://www.w3.org/2000/svg" width="20" height="20" viewBox="0 0 20 20">
    <g fill="none" fill-rule="evenodd">
        <g>
            <g transform="translate(-75.000000, -82.000000) translate(75.000000, 82.000000)">
                <circle cx="10" cy="10" r="10" fill="#FFE812"/>
                <path d="M4.25 5.056L16 5.056 16 15.899 4.25 15.899z"/>
                <path fill="#000" d="M10.125 5.056C6.88 5.056 4.25 7.13 4.25 9.69c0 1.654 1.1 3.105 2.754 3.924-.09.31-.578 1.997-.598 2.13 0 0-.012.1.053.137.064.038.14.009.14.009.185-.026 2.143-1.402 2.482-1.641.34.048.688.073 1.044.073C13.37 14.32 16 12.247 16 9.689c0-2.559-2.63-4.633-5.875-4.633"/>
                <path fill="#FFE812" d="M6.877 11.306c-.187 0-.34-.145-.34-.324V8.968H6.01c-.183 0-.333-.148-.333-.331 0-.183.15-.332.333-.332h1.736c.183 0 .332.149.332.332 0 .183-.15.331-.332.331h-.53v2.014c0 .179-.151.324-.338.324M9.22 10.112l-.338-.962-.338.962h.677zm.629 1.19c-.142 0-.25-.058-.282-.15l-.168-.44H8.365l-.167.44c-.033.092-.141.15-.282.15-.075 0-.15-.017-.216-.047-.093-.044-.183-.162-.08-.482l.81-2.134c.058-.162.231-.33.452-.334.221.005.395.172.452.335l.81 2.133c.104.32.014.439-.08.482-.066.03-.14.046-.215.046zM10.69 11.256c-.18 0-.325-.14-.325-.31V8.644c0-.187.155-.34.346-.34.19 0 .346.153.346.34v1.99h.72c.18 0 .325.14.325.312 0 .17-.146.31-.325.31H10.69zM12.573 11.301c-.187 0-.339-.152-.339-.339V8.644c0-.187.152-.34.339-.34.187 0 .339.153.339.34v.728l.946-.946c.048-.048.115-.075.188-.075.084 0 .17.037.233.1.06.06.095.136.1.215.004.08-.022.153-.075.206l-.773.773.835 1.105c.054.072.077.161.065.251-.013.09-.06.17-.132.224-.06.044-.13.068-.204.068-.107 0-.206-.049-.27-.135l-.795-1.053-.118.118v.74c0 .186-.152.338-.339.338"/>
            </g>
        </g>
    </g>
</svg>
