<svg xmlns="http://www.w3.org/2000/svg" xmlns:xlink="http://www.w3.org/1999/xlink" width="35" height="35" viewBox="0 0 35 35">
    <defs>
        <path id="hhkfowpd3a" d="M0 0.157L18.504 0.157 18.504 17.788 0 17.788z"/>
    </defs>
    <g fill="none" fill-rule="evenodd">
        <g>
            <circle cx="17.5" cy="17.5" r="17.5" fill="#00C300"/>
            <g>
                <g transform="translate(8 9) translate(0 .055)">
                    <mask id="p4yz4uwmjb" fill="#fff">
                        <use xlink:href="#hhkfowpd3a"/>
                    </mask>
                    <path fill="#FFF" d="M18.504 7.665c0-4.14-4.15-7.508-9.252-7.508C4.151.157 0 3.525 0 7.665c0 3.712 3.292 6.82 7.738 7.408.301.065.711.198.815.456.093.234.06.6.03.836l-.132.793c-.04.233-.186.915.801.498.988-.416 5.328-3.137 7.27-5.371 1.34-1.47 1.982-2.963 1.982-4.62" mask="url(#p4yz4uwmjb)"/>
                </g>
                <path fill="#00B900" d="M7.372 5.72h-.649c-.1 0-.18.08-.18.18v4.03c0 .1.08.18.18.18h.65c.099 0 .18-.08.18-.18V5.9c0-.1-.081-.18-.18-.18M11.84 5.72h-.65c-.1 0-.18.08-.18.18v2.394L9.163 5.8l-.014-.018-.001-.001-.011-.011-.004-.003-.01-.008c0-.002-.002-.003-.004-.004l-.01-.006-.005-.003-.01-.006-.005-.003-.01-.004-.006-.002-.011-.004-.006-.001-.01-.002-.008-.001-.01-.002h-.665c-.099 0-.18.08-.18.18v4.03c0 .1.081.18.18.18h.65c.1 0 .18-.08.18-.18V7.538l1.85 2.498c.013.018.028.032.045.044l.002.001.011.007.006.003.008.004.009.004.005.002.012.004h.003c.015.004.03.007.046.007h.65c.099 0 .18-.08.18-.18V5.899c0-.099-.081-.18-.18-.18M5.808 9.101H4.045V5.9c0-.1-.081-.18-.18-.18h-.65c-.1 0-.18.08-.18.18V9.93c0 .05.02.093.05.125l.003.003.003.002c.032.032.076.05.124.05h2.593c.1 0 .18-.08.18-.18v-.648c0-.1-.08-.18-.18-.18M15.423 6.729c.1 0 .18-.08.18-.18v-.65c0-.099-.08-.18-.18-.18h-2.592c-.05 0-.093.02-.126.051l-.002.002-.003.003c-.03.033-.05.076-.05.124V9.93c0 .05.02.093.05.125l.003.003.003.002c.032.031.076.05.124.05h2.593c.1 0 .18-.08.18-.18v-.648c0-.1-.08-.18-.18-.18H13.66V8.42h1.763c.1 0 .18-.08.18-.18v-.65c0-.099-.08-.18-.18-.18H13.66V6.73h1.763z" transform="translate(8 9)"/>
            </g>
        </g>
    </g>
</svg>
