<svg xmlns="http://www.w3.org/2000/svg" width="35" height="35" viewBox="0 0 35 35">
    <g fill="none" fill-rule="evenodd">
        <g>
            <circle cx="17.5" cy="17.5" r="17.5" fill="#009ADC"/>
            <path fill="#FFF" d="M11.814 20.265c.133.863.554 1.656 1.197 2.253.106.104.044.138-.062.16-.279.055-.542.169-.77.336-.193.127-.318.331-.34.56-.025.227.054.454.218.617.18.196.407.346.66.436.89.33 1.85.444 2.793.33.68-.039 1.327-.286 1.858-.706.183-.126.429-.126.61 0 .293.236.63.41.991.515 1.142.31 2.352.278 3.472-.097.301-.081.574-.24.793-.46.172-.164.26-.397.237-.633-.024-.236-.155-.447-.356-.575-.227-.16-.486-.268-.761-.318-.164-.035-.19-.075-.062-.204.512-.492.88-1.111 1.065-1.792 0-.015.01-.029.021-.04.014-.008.03-.01.045-.008l.096.176c.122.231.289.439.49.609.13.133.323.187.503.141.183-.046.326-.183.377-.364.05-.13.082-.269.097-.408.032-.336.01-.674-.068-1.003-.25-.967-.729-1.862-1.394-2.614-.096-.1-.129-.243-.084-.374.218-.576.06-1.226-.4-1.64-.081-.078-.131-.183-.141-.295-.143-1.076-.58-2.092-1.262-2.941-1.379-1.78-3.8-2.412-5.884-1.533-1.58.674-2.744 2.047-3.138 3.703-.17.507-.299 1.028-.383 1.555-.007.041-.024.08-.048.114-.182.232-.246.534-.172.819.07.26-.04.369-.215.509-.968.749-1.6 1.844-1.76 3.05-.077.383-.033.78.127 1.138.07.16.215.28.387.32.173.04.356 0 .493-.112.124-.094.23-.208.313-.34.175-.281.328-.578.457-.884"/>
        </g>
    </g>
</svg>
