<svg xmlns="http://www.w3.org/2000/svg" xmlns:xlink="http://www.w3.org/1999/xlink" width="35" height="35" viewBox="0 0 35 35">
    <defs>
        <path id="mvx1st1rfa" d="M0 0L12.833 0 12.833 12.833 0 12.833z"/>
        <path id="q9296a15ec" d="M0 0L12.833 0 12.833 12.833 0 12.833z"/>
        <path id="9jdtd1dete" d="M0.412 0L18.838 0 18.838 12.099 0.412 12.099z"/>
    </defs>
    <g fill="none" fill-rule="evenodd">
        <g>
            <circle cx="17.5" cy="17.5" r="17.5" fill="#01579B"/>
            <g>
                <g transform="translate(6.5 11) translate(9.167)">
                    <mask id="njnrk3sxqb" fill="#fff">
                        <use xlink:href="#mvx1st1rfa"/>
                    </mask>
                    <path fill="#FFF" d="M12.833 6.417c0 3.542-2.873 6.416-6.416 6.416S0 9.96 0 6.417C0 2.874 2.874 0 6.417 0c3.543 0 6.416 2.874 6.416 6.417" mask="url(#njnrk3sxqb)"/>
                </g>
                <g transform="translate(6.5 11)">
                    <mask id="v3w7j691nd" fill="#fff">
                        <use xlink:href="#q9296a15ec"/>
                    </mask>
                    <path fill="#FFF" d="M12.833 6.417c0 3.542-2.873 6.416-6.416 6.416S0 9.96 0 6.417C0 2.874 2.874 0 6.417 0c3.543 0 6.416 2.874 6.416 6.417" mask="url(#v3w7j691nd)"/>
                </g>
                <path fill="#FFF" d="M11 1.925C9.854 3.07 9.167 4.675 9.167 6.417S9.854 9.763 11 10.909c1.146-1.146 1.833-2.75 1.833-4.492S12.146 3.07 11 1.925" transform="translate(6.5 11)"/>
                <g transform="translate(6.5 11) translate(1.375)">
                    <mask id="r3hnrxmraf" fill="#fff">
                        <use xlink:href="#9jdtd1dete"/>
                    </mask>
                    <path fill="#01579B" d="M15.125 5.042V.092C14.805.046 14.529 0 14.208 0c-.32 0-.596.047-.916.091v4.95c0 2.569-1.513 4.813-3.714 5.82.459.506 1.01.918 1.604 1.238 1.284-.779 2.339-1.925 3.026-3.253.688 1.328 1.742 2.474 3.026 3.253.594-.32 1.146-.732 1.604-1.237-2.2-1.008-3.713-3.252-3.713-5.82m-5.453 5.82c-.459.505-1.01.917-1.604 1.237-1.284-.779-2.339-1.925-3.026-3.253C4.354 10.174 3.3 11.32 2.016 12.1c-.594-.32-1.146-.732-1.604-1.237 2.2-1.008 3.713-3.252 3.713-5.82V.092C4.445.046 4.721 0 5.042 0c.32 0 .596.047.916.091v4.95c0 2.569 1.513 4.813 3.714 5.82" mask="url(#r3hnrxmraf)"/>
                </g>
            </g>
        </g>
    </g>
</svg>
