<svg xmlns="http://www.w3.org/2000/svg" width="35" height="35" viewBox="0 0 35 35">
    <g fill="none" fill-rule="evenodd">
        <g>
            <path fill="#1DA1F2" d="M35 17.5C35 27.165 27.165 35 17.5 35S0 27.165 0 17.5 7.835 0 17.5 0 35 7.835 35 17.5"/>
            <path fill="#FFF" d="M14.298 26.73c7.76 0 12.003-6.428 12.003-12.003 0-.182-.004-.364-.012-.545.824-.595 1.54-1.338 2.105-2.184-.756.335-1.57.562-2.423.664.871-.522 1.54-1.349 1.855-2.334-.815.483-1.718.835-2.679 1.024-.77-.82-1.866-1.333-3.079-1.333-2.33 0-4.22 1.89-4.22 4.219 0 .33.038.653.11.962-3.506-.177-6.615-1.855-8.696-4.408-.362.623-.57 1.348-.57 2.12 0 1.464.744 2.756 1.876 3.512-.692-.021-1.342-.212-1.91-.528l-.001.054c0 2.043 1.454 3.75 3.384 4.136-.354.096-.727.148-1.112.148-.272 0-.536-.027-.793-.076.537 1.676 2.095 2.896 3.941 2.93-1.444 1.132-3.263 1.806-5.24 1.806-.34 0-.676-.02-1.006-.058 1.867 1.196 4.084 1.895 6.467 1.895"/>
        </g>
    </g>
</svg>
