<svg xmlns="http://www.w3.org/2000/svg" xmlns:xlink="http://www.w3.org/1999/xlink" width="35" height="35" viewBox="0 0 35 35">
    <defs>
        <path id="7gojoe4ypa" d="M0 0.006L12.028 0.006 12.028 11.708 0 11.708z"/>
    </defs>
    <g fill="none" fill-rule="evenodd">
        <g>
            <circle cx="17.5" cy="17.5" r="17.5" fill="#2DC100"/>
            <g>
                <g transform="translate(9 10) translate(0 .06)">
                    <mask id="dvk6etfdhb" fill="#fff">
                        <use xlink:href="#7gojoe4ypa"/>
                    </mask>
                    <path fill="#FFF" d="M8.49 3.52c-.396.007-.73.344-.724.73.007.4.336.712.744.707.409-.005.719-.32.715-.729-.004-.4-.33-.716-.734-.709m-3.86.742c.016-.384-.317-.73-.712-.741-.405-.012-.737.297-.75.696-.011.403.298.727.705.738.404.01.743-.3.758-.693m7.396.654c-1.607.084-3.005.57-4.14 1.672C6.744 7.699 6.22 9.06 6.363 10.75c-.628-.077-1.2-.163-1.775-.212-.199-.016-.435.008-.603.103-.559.315-1.094.67-1.73 1.067.117-.526.193-.988.326-1.431.098-.327.053-.508-.248-.72C.403 8.195-.41 6.157.198 4.057.762 2.118 2.144.94 4.023.326c2.564-.837 5.446.017 7.005 2.053.563.735.909 1.56 1 2.537" mask="url(#dvk6etfdhb)"/>
                </g>
                <path fill="#FFF" d="M13.58 8.19c-.314-.003-.581.255-.594.572-.014.34.25.619.586.62.325 0 .582-.245.594-.569.013-.34-.251-.621-.586-.623M9.846 9.386c.324 0 .59-.254.603-.573.013-.34-.26-.623-.599-.625-.336-.001-.617.287-.605.62.01.32.28.577.6.578m5.793 5.608c-.508-.227-.975-.567-1.472-.618-.495-.052-1.016.234-1.534.286-1.577.162-2.99-.278-4.156-1.356-2.217-2.05-1.9-5.193.664-6.874 2.28-1.493 5.622-.995 7.23 1.077 1.402 1.808 1.237 4.208-.475 5.727-.496.44-.674.801-.356 1.38.059.107.065.243.1.378" transform="translate(9 10)"/>
            </g>
        </g>
    </g>
</svg>
