<svg xmlns="http://www.w3.org/2000/svg" xmlns:xlink="http://www.w3.org/1999/xlink" width="35" height="35" viewBox="0 0 35 35">
    <defs>
        <path id="aw07sjgdwa" d="M0 0L6.136 0 6.136 7.083 0 7.083z"/>
    </defs>
    <g fill="none" fill-rule="evenodd">
        <g>
            <circle cx="17.5" cy="17.5" r="17.5" fill="#D32F2F"/>
            <g>
                <path fill="#FFF" d="M13.377 7.458c-.245-.083-.41-.124-.286-.458.286-.708.327-1.333 0-1.792-.572-.833-2.168-.79-3.968-.042 0 0-.574.25-.41-.209.287-.916.245-1.666-.204-2.083-.983-.999-3.6.043-5.85 2.292C.981 6.875 0 8.667 0 10.208 0 13.208 3.764 15 7.487 15c4.828 0 8.059-2.833 8.059-5.083 0-1.375-1.146-2.125-2.169-2.46m-6.095 6.25c-2.905.294-5.44-1.041-5.645-2.957C1.432 8.833 3.682 7 6.587 6.71c2.945-.293 5.44 1.041 5.644 2.957.204 1.959-2.004 3.75-4.949 4.042" transform="translate(9 10)"/>
                <path fill="#FFF" d="M7.568 8c-1.432-.375-3.026.333-3.64 1.583-.613 1.293-.042 2.709 1.432 3.168 1.471.5 3.231-.251 3.845-1.627C9.818 9.792 9.042 8.377 7.568 8m-1.185 3.168c-.289.417-.942.625-1.432.417-.493-.208-.614-.709-.328-1.085.286-.416.9-.582 1.39-.416.533.168.695.668.37 1.084m1.348-1.001c-.121.208-.367.333-.572.25-.204-.082-.247-.333-.163-.541.121-.208.368-.334.53-.208.247.042.289.25.205.499M17.754 6.458c0 .345-.275.625-.614.625-.339 0-.614-.28-.614-.625s.275-.625.614-.625c.34 0 .614.28.614.625" transform="translate(9 10)"/>
                <g transform="translate(9 10) translate(11.864)">
                    <mask id="w2d65bkwhb" fill="#fff">
                        <use xlink:href="#aw07sjgdwa"/>
                    </mask>
                    <path fill="#FFF" d="M3.682 5c0-1.375-1.105-2.5-2.455-2.5H.901c-.287.043-.534.292-.534.625s.288.625.614.625h.204c.698 0 1.227.542 1.227 1.25 0 .125-.039.292-.08.417-.04.083-.04.125-.04.208 0 .333.286.625.613.625.245 0 .45-.166.572-.374v-.043c0-.042 0-.042.042-.083.12-.25.163-.5.163-.75M5.85 6.667c-.08.25-.327.416-.574.416-.325 0-.614-.291-.614-.625 0-.083 0-.165.043-.25.122-.375.204-.791.204-1.208 0-2.083-1.636-3.75-3.682-3.75-.162 0-.367 0-.531.043H.614C.286 1.293 0 .999 0 .668 0 .334.286.043.614.043.818 0 1.023 0 1.227 0c2.701 0 4.91 2.25 4.91 5 0 .583-.082 1.125-.287 1.667" mask="url(#w2d65bkwhb)"/>
                </g>
            </g>
        </g>
    </g>
</svg>
